<svg xmlns="http://www.w3.org/2000/svg" style="vertical-align: -0.777ex;width: 20.781ex;height: 2.949ex;" viewBox="0 -960 9185.1 1303.3"><g fill="currentColor" stroke="currentColor" stroke-width="0" transform="matrix(1, 0, 0, -1, 0, 0)"><g data-mml-node="math"><g data-mml-node="mi"><path d="M 228 637 Q 194 637 192 641 Q 191 643 191 649 Q 191 673 202 682 Q 204 683 217 683 Q 271 680 344 680 Q 485 680 506 683 H 518 Q 524 677 524 674 T 522 656 Q 517 641 513 637 H 475 Q 406 636 394 628 Q 387 624 380 600 T 313 336 Q 297 271 279 198 T 252 88 L 243 52 Q 243 48 252 48 T 311 46 H 328 Q 360 46 379 47 T 428 54 T 478 72 T 522 106 T 564 161 Q 580 191 594 228 T 611 270 Q 616 273 628 273 H 641 Q 647 264 647 262 T 627 203 T 583 83 T 557 9 Q 555 4 553 3 T 537 0 T 494 -1 Q 483 -1 418 -1 T 294 0 H 116 Q 32 0 32 10 Q 32 17 34 24 Q 39 43 44 45 Q 48 46 59 46 H 65 Q 92 46 125 49 Q 139 52 144 61 Q 147 65 216 339 T 285 628 Q 285 635 228 637 Z" data-c="4C"/></g><g transform="translate(958.8)" data-mml-node="mo"><path d="M 56 347 Q 56 360 70 367 H 707 Q 722 359 722 347 Q 722 336 708 328 L 390 327 H 72 Q 56 332 56 347 Z M 56 153 Q 56 168 72 173 H 708 Q 722 163 722 153 Q 722 140 707 133 H 70 Q 56 140 56 153 Z" data-c="3D"/></g><g transform="translate(2014.6)" data-mml-node="mo"><path d="M 84 237 T 84 250 T 98 270 H 679 Q 694 262 694 250 T 679 230 H 98 Q 84 237 84 250 Z" data-c="2212"/></g><g transform="translate(2959.2)" data-mml-node="munderover"><g data-mml-node="mo"><path d="M 61 748 Q 64 750 489 750 H 913 L 954 640 Q 965 609 976 579 T 993 533 T 999 516 H 979 L 959 517 Q 936 579 886 621 T 777 682 Q 724 700 655 705 T 436 710 H 319 Q 183 710 183 709 Q 186 706 348 484 T 511 259 Q 517 250 513 244 L 490 216 Q 466 188 420 134 T 330 27 L 149 -187 Q 149 -188 362 -188 Q 388 -188 436 -188 T 506 -189 Q 679 -189 778 -162 T 936 -43 Q 946 -27 959 6 H 999 L 913 -249 L 489 -250 Q 65 -250 62 -248 Q 56 -246 56 -239 Q 56 -234 118 -161 Q 186 -81 245 -11 L 428 206 Q 428 207 242 462 L 57 717 L 56 728 Q 56 744 61 748 Z" data-c="2211"/></g><g transform="translate(1056 477.1) scale(0.707)" data-mml-node="mi"><path d="M 289 629 Q 289 635 232 637 Q 208 637 201 638 T 194 648 Q 194 649 196 659 Q 197 662 198 666 T 199 671 T 201 676 T 203 679 T 207 681 T 212 683 T 220 683 T 232 684 Q 238 684 262 684 T 307 683 Q 386 683 398 683 T 414 678 Q 415 674 451 396 L 487 117 L 510 154 Q 534 190 574 254 T 662 394 Q 837 673 839 675 Q 840 676 842 678 T 846 681 L 852 683 H 948 Q 965 683 988 683 T 1017 684 Q 1051 684 1051 673 Q 1051 668 1048 656 T 1045 643 Q 1041 637 1008 637 Q 968 636 957 634 T 939 623 Q 936 618 867 340 T 797 59 Q 797 55 798 54 T 805 50 T 822 48 T 855 46 H 886 Q 892 37 892 35 Q 892 19 885 5 Q 880 0 869 0 Q 864 0 828 1 T 736 2 Q 675 2 644 2 T 609 1 Q 592 1 592 11 Q 592 13 594 25 Q 598 41 602 43 T 625 46 Q 652 46 685 49 Q 699 52 704 61 Q 706 65 742 207 T 813 490 T 848 631 L 654 322 Q 458 10 453 5 Q 451 4 449 3 Q 444 0 433 0 Q 418 0 415 7 Q 413 11 374 317 L 335 624 L 267 354 Q 200 88 200 79 Q 206 46 272 46 H 282 Q 288 41 289 37 T 286 19 Q 282 3 278 1 Q 274 0 267 0 Q 265 0 255 0 T 221 1 T 157 2 Q 127 2 95 1 T 58 0 Q 43 0 39 2 T 35 11 Q 35 13 38 25 T 43 40 Q 45 46 65 46 Q 135 46 154 86 Q 158 92 223 354 T 289 629 Z" data-c="4D"/></g><g transform="translate(1056 -285.4) scale(0.707)" data-mml-node="TeXAtom"><g data-mml-node="mi"><path d="M 34 159 Q 34 268 120 355 T 306 442 Q 362 442 394 418 T 427 355 Q 427 326 408 306 T 360 285 Q 341 285 330 295 T 319 325 T 330 359 T 352 380 T 366 386 H 367 Q 367 388 361 392 T 340 400 T 306 404 Q 276 404 249 390 Q 228 381 206 359 Q 162 315 142 235 T 121 119 Q 121 73 147 50 Q 169 26 205 26 H 209 Q 321 26 394 111 Q 403 121 406 121 Q 410 121 419 112 T 429 98 T 420 83 T 391 55 T 346 25 T 282 0 T 202 -11 Q 127 -11 81 37 T 34 159 Z" data-c="63"/></g><g transform="translate(433)" data-mml-node="mo"><path d="M 56 347 Q 56 360 70 367 H 707 Q 722 359 722 347 Q 722 336 708 328 L 390 327 H 72 Q 56 332 56 347 Z M 56 153 Q 56 168 72 173 H 708 Q 722 163 722 153 Q 722 140 707 133 H 70 Q 56 140 56 153 Z" data-c="3D"/></g><g transform="translate(1211)" data-mml-node="mn"><path d="M 213 578 L 200 573 Q 186 568 160 563 T 102 556 H 83 V 602 H 102 Q 149 604 189 617 T 245 641 T 273 663 Q 275 666 285 666 Q 294 666 302 660 V 361 L 303 61 Q 310 54 315 52 T 339 48 T 401 46 H 427 V 0 H 416 Q 395 3 257 3 Q 121 3 100 0 H 88 V 46 H 114 Q 136 46 152 46 T 177 47 T 193 50 T 201 52 T 207 57 T 213 61 V 578 Z" data-c="31"/></g></g></g><g transform="translate(5441.7)" data-mml-node="msub"><g data-mml-node="mi"><path d="M 21 287 Q 21 301 36 335 T 84 406 T 158 442 Q 199 442 224 419 T 250 355 Q 248 336 247 334 Q 247 331 231 288 T 198 191 T 182 105 Q 182 62 196 45 T 238 27 Q 261 27 281 38 T 312 61 T 339 94 Q 339 95 344 114 T 358 173 T 377 247 Q 415 397 419 404 Q 432 431 462 431 Q 475 431 483 424 T 494 412 T 496 403 Q 496 390 447 193 T 391 -23 Q 363 -106 294 -155 T 156 -205 Q 111 -205 77 -183 T 43 -117 Q 43 -95 50 -80 T 69 -58 T 89 -48 T 106 -45 Q 150 -45 150 -87 Q 150 -107 138 -122 T 115 -142 T 102 -147 L 99 -148 Q 101 -153 118 -160 T 152 -167 H 160 Q 177 -167 186 -165 Q 219 -156 247 -127 T 290 -65 T 313 -9 T 321 21 L 315 17 Q 309 13 296 6 T 270 -6 Q 250 -11 231 -11 Q 185 -11 150 11 T 104 82 Q 103 89 103 113 Q 103 170 138 262 T 173 379 Q 173 380 173 381 Q 173 390 173 393 T 169 400 T 158 404 H 154 Q 131 404 112 385 T 82 344 T 65 302 T 57 280 Q 55 278 41 278 H 27 Q 21 284 21 287 Z" data-c="79"/></g><g transform="translate(490 -150) scale(0.707)" data-mml-node="mi"><path d="M 34 159 Q 34 268 120 355 T 306 442 Q 362 442 394 418 T 427 355 Q 427 326 408 306 T 360 285 Q 341 285 330 295 T 319 325 T 330 359 T 352 380 T 366 386 H 367 Q 367 388 361 392 T 340 400 T 306 404 Q 276 404 249 390 Q 228 381 206 359 Q 162 315 142 235 T 121 119 Q 121 73 147 50 Q 169 26 205 26 H 209 Q 321 26 394 111 Q 403 121 406 121 Q 410 121 419 112 T 429 98 T 420 83 T 391 55 T 346 25 T 282 0 T 202 -11 Q 127 -11 81 37 T 34 159 Z" data-c="63"/></g></g><g transform="translate(6287.9)" data-mml-node="mi"><path d="M 117 59 Q 117 26 142 26 Q 179 26 205 131 Q 211 151 215 152 Q 217 153 225 153 H 229 Q 238 153 241 153 T 246 151 T 248 144 Q 247 138 245 128 T 234 90 T 214 43 T 183 6 T 137 -11 Q 101 -11 70 11 T 38 85 Q 38 97 39 102 L 104 360 Q 167 615 167 623 Q 167 626 166 628 T 162 632 T 157 634 T 149 635 T 141 636 T 132 637 T 122 637 Q 112 637 109 637 T 101 638 T 95 641 T 94 647 Q 94 649 96 661 Q 101 680 107 682 T 179 688 Q 194 689 213 690 T 243 693 T 254 694 Q 266 694 266 686 Q 266 675 193 386 T 118 83 Q 118 81 118 75 T 117 65 V 59 Z" data-c="6C"/></g><g transform="translate(6585.9)" data-mml-node="mi"><path d="M 201 -11 Q 126 -11 80 38 T 34 156 Q 34 221 64 279 T 146 380 Q 222 441 301 441 Q 333 441 341 440 Q 354 437 367 433 T 402 417 T 438 387 T 464 338 T 476 268 Q 476 161 390 75 T 201 -11 Z M 121 120 Q 121 70 147 48 T 206 26 Q 250 26 289 58 T 351 142 Q 360 163 374 216 T 388 308 Q 388 352 370 375 Q 346 405 306 405 Q 243 405 195 347 Q 158 303 140 230 T 121 120 Z" data-c="6F"/></g><g transform="translate(7070.9)" data-mml-node="mi"><path d="M 311 43 Q 296 30 267 15 T 206 0 Q 143 0 105 45 T 66 160 Q 66 265 143 353 T 314 442 Q 361 442 401 394 L 404 398 Q 406 401 409 404 T 418 412 T 431 419 T 447 422 Q 461 422 470 413 T 480 394 Q 480 379 423 152 T 363 -80 Q 345 -134 286 -169 T 151 -205 Q 10 -205 10 -137 Q 10 -111 28 -91 T 74 -71 Q 89 -71 102 -80 T 116 -111 Q 116 -121 114 -130 T 107 -144 T 99 -154 T 92 -162 L 90 -164 H 91 Q 101 -167 151 -167 Q 189 -167 211 -155 Q 234 -144 254 -122 T 282 -75 Q 288 -56 298 -13 Q 311 35 311 43 Z M 384 328 L 380 339 Q 377 350 375 354 T 369 368 T 359 382 T 346 393 T 328 402 T 306 405 Q 262 405 221 352 Q 191 313 171 233 T 151 117 Q 151 38 213 38 Q 269 38 323 108 L 331 118 L 384 328 Z" data-c="67"/></g><g transform="translate(7547.9)" data-mml-node="mo"><path d="M 94 250 Q 94 319 104 381 T 127 488 T 164 576 T 202 643 T 244 695 T 277 729 T 302 750 H 315 H 319 Q 333 750 333 741 Q 333 738 316 720 T 275 667 T 226 581 T 184 443 T 167 250 T 184 58 T 225 -81 T 274 -167 T 316 -220 T 333 -241 Q 333 -250 318 -250 H 315 H 302 L 274 -226 Q 180 -141 137 -14 T 94 250 Z" data-c="28"/></g><g transform="translate(7936.9)" data-mml-node="msub"><g data-mml-node="mi"><path d="M 23 287 Q 24 290 25 295 T 30 317 T 40 348 T 55 381 T 75 411 T 101 433 T 134 442 Q 209 442 230 378 L 240 387 Q 302 442 358 442 Q 423 442 460 395 T 497 281 Q 497 173 421 82 T 249 -10 Q 227 -10 210 -4 Q 199 1 187 11 T 168 28 L 161 36 Q 160 35 139 -51 T 118 -138 Q 118 -144 126 -145 T 163 -148 H 188 Q 194 -155 194 -157 T 191 -175 Q 188 -187 185 -190 T 172 -194 Q 170 -194 161 -194 T 127 -193 T 65 -192 Q -5 -192 -24 -194 H -32 Q -39 -187 -39 -183 Q -37 -156 -26 -148 H -6 Q 28 -147 33 -136 Q 36 -130 94 103 T 155 350 Q 156 355 156 364 Q 156 405 131 405 Q 109 405 94 377 T 71 316 T 59 280 Q 57 278 43 278 H 29 Q 23 284 23 287 Z M 178 102 Q 200 26 252 26 Q 282 26 310 49 T 356 107 Q 374 141 392 215 T 411 325 V 331 Q 411 405 350 405 Q 339 405 328 402 T 306 393 T 286 380 T 269 365 T 254 350 T 243 336 T 235 326 L 232 322 Q 232 321 229 308 T 218 264 T 204 212 Q 178 106 178 102 Z" data-c="70"/></g><g transform="translate(503 -150) scale(0.707)" data-mml-node="mi"><path d="M 34 159 Q 34 268 120 355 T 306 442 Q 362 442 394 418 T 427 355 Q 427 326 408 306 T 360 285 Q 341 285 330 295 T 319 325 T 330 359 T 352 380 T 366 386 H 367 Q 367 388 361 392 T 340 400 T 306 404 Q 276 404 249 390 Q 228 381 206 359 Q 162 315 142 235 T 121 119 Q 121 73 147 50 Q 169 26 205 26 H 209 Q 321 26 394 111 Q 403 121 406 121 Q 410 121 419 112 T 429 98 T 420 83 T 391 55 T 346 25 T 282 0 T 202 -11 Q 127 -11 81 37 T 34 159 Z" data-c="63"/></g></g><g transform="translate(8796.1)" data-mml-node="mo"><path d="M 60 749 L 64 750 Q 69 750 74 750 H 86 L 114 726 Q 208 641 251 514 T 294 250 Q 294 182 284 119 T 261 12 T 224 -76 T 186 -143 T 145 -194 T 113 -227 T 90 -246 Q 87 -249 86 -250 H 74 Q 66 -250 63 -250 T 58 -247 T 55 -238 Q 56 -237 66 -225 Q 221 -64 221 250 T 66 725 Q 56 737 55 738 Q 55 746 60 749 Z" data-c="29"/></g></g></g></svg>