<svg xmlns="http://www.w3.org/2000/svg" style="vertical-align: -1.236ex;width: 17.904ex;height: 3.604ex;" viewBox="0 -1046.4 7913.4 1592.8"><g fill="currentColor" stroke="currentColor" stroke-width="0" transform="matrix(1, 0, 0, -1, 0, 0)"><g data-mml-node="math"><g data-mml-node="mi"><path d="M 117 59 Q 117 26 142 26 Q 179 26 205 131 Q 211 151 215 152 Q 217 153 225 153 H 229 Q 238 153 241 153 T 246 151 T 248 144 Q 247 138 245 128 T 234 90 T 214 43 T 183 6 T 137 -11 Q 101 -11 70 11 T 38 85 Q 38 97 39 102 L 104 360 Q 167 615 167 623 Q 167 626 166 628 T 162 632 T 157 634 T 149 635 T 141 636 T 132 637 T 122 637 Q 112 637 109 637 T 101 638 T 95 641 T 94 647 Q 94 649 96 661 Q 101 680 107 682 T 179 688 Q 194 689 213 690 T 243 693 T 254 694 Q 266 694 266 686 Q 266 675 193 386 T 118 83 Q 118 81 118 75 T 117 65 V 59 Z" data-c="6C"/></g><g transform="translate(298)" data-mml-node="mi"><path d="M 201 -11 Q 126 -11 80 38 T 34 156 Q 34 221 64 279 T 146 380 Q 222 441 301 441 Q 333 441 341 440 Q 354 437 367 433 T 402 417 T 438 387 T 464 338 T 476 268 Q 476 161 390 75 T 201 -11 Z M 121 120 Q 121 70 147 48 T 206 26 Q 250 26 289 58 T 351 142 Q 360 163 374 216 T 388 308 Q 388 352 370 375 Q 346 405 306 405 Q 243 405 195 347 Q 158 303 140 230 T 121 120 Z" data-c="6F"/></g><g transform="translate(783)" data-mml-node="mi"><path d="M 131 289 Q 131 321 147 354 T 203 415 T 300 442 Q 362 442 390 415 T 419 355 Q 419 323 402 308 T 364 292 Q 351 292 340 300 T 328 326 Q 328 342 337 354 T 354 372 T 367 378 Q 368 378 368 379 Q 368 382 361 388 T 336 399 T 297 405 Q 249 405 227 379 T 204 326 Q 204 301 223 291 T 278 274 T 330 259 Q 396 230 396 163 Q 396 135 385 107 T 352 51 T 289 7 T 195 -10 Q 118 -10 86 19 T 53 87 Q 53 126 74 143 T 118 160 Q 133 160 146 151 T 160 120 Q 160 94 142 76 T 111 58 Q 109 57 108 57 T 107 55 Q 108 52 115 47 T 146 34 T 201 27 Q 237 27 263 38 T 301 66 T 318 97 T 323 122 Q 323 150 302 164 T 254 181 T 195 196 T 148 231 Q 131 256 131 289 Z" data-c="73"/></g><g transform="translate(1252)" data-mml-node="mi"><path d="M 131 289 Q 131 321 147 354 T 203 415 T 300 442 Q 362 442 390 415 T 419 355 Q 419 323 402 308 T 364 292 Q 351 292 340 300 T 328 326 Q 328 342 337 354 T 354 372 T 367 378 Q 368 378 368 379 Q 368 382 361 388 T 336 399 T 297 405 Q 249 405 227 379 T 204 326 Q 204 301 223 291 T 278 274 T 330 259 Q 396 230 396 163 Q 396 135 385 107 T 352 51 T 289 7 T 195 -10 Q 118 -10 86 19 T 53 87 Q 53 126 74 143 T 118 160 Q 133 160 146 151 T 160 120 Q 160 94 142 76 T 111 58 Q 109 57 108 57 T 107 55 Q 108 52 115 47 T 146 34 T 201 27 Q 237 27 263 38 T 301 66 T 318 97 T 323 122 Q 323 150 302 164 T 254 181 T 195 196 T 148 231 Q 131 256 131 289 Z" data-c="73"/></g><g transform="translate(1998.8)" data-mml-node="mo"><path d="M 56 347 Q 56 360 70 367 H 707 Q 722 359 722 347 Q 722 336 708 328 L 390 327 H 72 Q 56 332 56 347 Z M 56 153 Q 56 168 72 173 H 708 Q 722 163 722 153 Q 722 140 707 133 H 70 Q 56 140 56 153 Z" data-c="3D"/></g><g transform="translate(3054.6)" data-mml-node="mn"><path d="M 213 578 L 200 573 Q 186 568 160 563 T 102 556 H 83 V 602 H 102 Q 149 604 189 617 T 245 641 T 273 663 Q 275 666 285 666 Q 294 666 302 660 V 361 L 303 61 Q 310 54 315 52 T 339 48 T 401 46 H 427 V 0 H 416 Q 395 3 257 3 Q 121 3 100 0 H 88 V 46 H 114 Q 136 46 152 46 T 177 47 T 193 50 T 201 52 T 207 57 T 213 61 V 578 Z" data-c="31"/></g><g transform="translate(3776.8)" data-mml-node="mo"><path d="M 84 237 T 84 250 T 98 270 H 679 Q 694 262 694 250 T 679 230 H 98 Q 84 237 84 250 Z" data-c="2212"/></g><g transform="translate(4777)" data-mml-node="mfrac"><g transform="translate(220 516.4) scale(0.707)" data-mml-node="mrow"><g data-mml-node="mn"><path d="M 109 429 Q 82 429 66 447 T 50 491 Q 50 562 103 614 T 235 666 Q 326 666 387 610 T 449 465 Q 449 422 429 383 T 381 315 T 301 241 Q 265 210 201 149 L 142 93 L 218 92 Q 375 92 385 97 Q 392 99 409 186 V 189 H 449 V 186 Q 448 183 436 95 T 421 3 V 0 H 50 V 19 V 31 Q 50 38 56 46 T 86 81 Q 115 113 136 137 Q 145 147 170 174 T 204 211 T 233 244 T 261 278 T 284 308 T 305 340 T 320 369 T 333 401 T 340 431 T 343 464 Q 343 527 309 573 T 212 619 Q 179 619 154 602 T 119 569 T 109 550 Q 109 549 114 549 Q 132 549 151 535 T 170 489 Q 170 464 154 447 T 109 429 Z" data-c="32"/></g><g transform="translate(500)" data-mml-node="mo"><path d="M 139 -249 H 137 Q 125 -249 119 -235 V 251 L 120 737 Q 130 750 139 750 Q 152 750 159 735 V -235 Q 151 -249 141 -249 H 139 Z" data-c="7C"/></g><g transform="translate(778)" data-mml-node="mi"><path d="M 42 0 H 40 Q 26 0 26 11 Q 26 15 29 27 Q 33 41 36 43 T 55 46 Q 141 49 190 98 Q 200 108 306 224 T 411 342 Q 302 620 297 625 Q 288 636 234 637 H 206 Q 200 643 200 645 T 202 664 Q 206 677 212 683 H 226 Q 260 681 347 681 Q 380 681 408 681 T 453 682 T 473 682 Q 490 682 490 671 Q 490 670 488 658 Q 484 643 481 640 T 465 637 Q 434 634 411 620 L 488 426 L 541 485 Q 646 598 646 610 Q 646 628 622 635 Q 617 635 609 637 Q 594 637 594 648 Q 594 650 596 664 Q 600 677 606 683 H 618 Q 619 683 643 683 T 697 681 T 738 680 Q 828 680 837 683 H 845 Q 852 676 852 672 Q 850 647 840 637 H 824 Q 790 636 763 628 T 722 611 T 698 593 L 687 584 Q 687 585 592 480 L 505 384 Q 505 383 536 304 T 601 142 T 638 56 Q 648 47 699 46 Q 734 46 734 37 Q 734 35 732 23 Q 728 7 725 4 T 711 1 Q 708 1 678 1 T 589 2 Q 528 2 496 2 T 461 1 Q 444 1 444 10 Q 444 11 446 25 Q 448 35 450 39 T 455 44 T 464 46 T 480 47 T 506 54 Q 523 62 523 64 Q 522 64 476 181 L 429 299 Q 241 95 236 84 Q 232 76 232 72 Q 232 53 261 47 Q 262 47 267 47 T 273 46 Q 276 46 277 46 T 280 45 T 283 42 T 284 35 Q 284 26 282 19 Q 279 6 276 4 T 261 1 Q 258 1 243 1 T 201 2 T 142 2 Q 64 2 42 0 Z" data-c="58"/></g><g transform="translate(1772.7)" data-mml-node="mo"><path d="M 139 -217 Q 127 -241 114 -246 Q 106 -249 97 -249 Q 67 -249 57 -220 Q 55 -214 55 102 Q 55 152 55 221 T 54 312 Q 54 422 60 464 T 91 554 Q 120 612 165 654 T 257 714 T 337 741 T 392 749 Q 393 750 402 750 Q 414 750 422 749 Q 557 749 660 659 T 776 430 Q 777 422 777 102 Q 777 -214 775 -220 Q 765 -249 735 -249 Q 716 -249 708 -241 T 694 -217 L 692 428 L 690 441 Q 674 540 597 603 T 416 666 H 409 Q 388 666 364 662 T 294 638 T 212 581 Q 156 523 142 441 L 140 428 L 139 105 V -217 Z" data-c="22C2"/></g><g transform="translate(2772.3)" data-mml-node="mi"><path d="M 66 637 Q 54 637 49 637 T 39 638 T 32 641 T 30 647 T 33 664 T 42 682 Q 44 683 56 683 Q 104 680 165 680 Q 288 680 306 683 H 316 Q 322 677 322 674 T 320 656 Q 316 643 310 637 H 298 Q 242 637 242 624 Q 242 619 292 477 T 343 333 L 346 336 Q 350 340 358 349 T 379 373 T 411 410 T 454 461 Q 546 568 561 587 T 577 618 Q 577 634 545 637 Q 528 637 528 647 Q 528 649 530 661 Q 533 676 535 679 T 549 683 Q 551 683 578 682 T 657 680 Q 684 680 713 681 T 746 682 Q 763 682 763 673 Q 763 669 760 657 T 755 643 Q 753 637 734 637 Q 662 632 617 587 Q 608 578 477 424 L 348 273 L 322 169 Q 295 62 295 57 Q 295 46 363 46 Q 379 46 384 45 T 390 35 Q 390 33 388 23 Q 384 6 382 4 T 366 1 Q 361 1 324 1 T 232 2 Q 170 2 138 2 T 102 1 Q 84 1 84 9 Q 84 14 87 24 Q 88 27 89 30 T 90 35 T 91 39 T 93 42 T 96 44 T 101 45 T 107 45 T 116 46 T 129 46 Q 168 47 180 50 T 198 63 Q 201 68 227 171 L 252 274 L 129 623 Q 128 624 127 625 T 125 627 T 122 629 T 118 631 T 113 633 T 105 634 T 96 635 T 83 636 T 66 637 Z" data-c="59"/></g><g transform="translate(3535.3)" data-mml-node="mo"><path d="M 139 -249 H 137 Q 125 -249 119 -235 V 251 L 120 737 Q 130 750 139 750 Q 152 750 159 735 V -235 Q 151 -249 141 -249 H 139 Z" data-c="7C"/></g></g><g transform="translate(337.5 -370) scale(0.707)" data-mml-node="mrow"><g data-mml-node="mo"><path d="M 139 -249 H 137 Q 125 -249 119 -235 V 251 L 120 737 Q 130 750 139 750 Q 152 750 159 735 V -235 Q 151 -249 141 -249 H 139 Z" data-c="7C"/></g><g transform="translate(278)" data-mml-node="mi"><path d="M 42 0 H 40 Q 26 0 26 11 Q 26 15 29 27 Q 33 41 36 43 T 55 46 Q 141 49 190 98 Q 200 108 306 224 T 411 342 Q 302 620 297 625 Q 288 636 234 637 H 206 Q 200 643 200 645 T 202 664 Q 206 677 212 683 H 226 Q 260 681 347 681 Q 380 681 408 681 T 453 682 T 473 682 Q 490 682 490 671 Q 490 670 488 658 Q 484 643 481 640 T 465 637 Q 434 634 411 620 L 488 426 L 541 485 Q 646 598 646 610 Q 646 628 622 635 Q 617 635 609 637 Q 594 637 594 648 Q 594 650 596 664 Q 600 677 606 683 H 618 Q 619 683 643 683 T 697 681 T 738 680 Q 828 680 837 683 H 845 Q 852 676 852 672 Q 850 647 840 637 H 824 Q 790 636 763 628 T 722 611 T 698 593 L 687 584 Q 687 585 592 480 L 505 384 Q 505 383 536 304 T 601 142 T 638 56 Q 648 47 699 46 Q 734 46 734 37 Q 734 35 732 23 Q 728 7 725 4 T 711 1 Q 708 1 678 1 T 589 2 Q 528 2 496 2 T 461 1 Q 444 1 444 10 Q 444 11 446 25 Q 448 35 450 39 T 455 44 T 464 46 T 480 47 T 506 54 Q 523 62 523 64 Q 522 64 476 181 L 429 299 Q 241 95 236 84 Q 232 76 232 72 Q 232 53 261 47 Q 262 47 267 47 T 273 46 Q 276 46 277 46 T 280 45 T 283 42 T 284 35 Q 284 26 282 19 Q 279 6 276 4 T 261 1 Q 258 1 243 1 T 201 2 T 142 2 Q 64 2 42 0 Z" data-c="58"/></g><g transform="translate(1106)" data-mml-node="mo"><path d="M 139 -249 H 137 Q 125 -249 119 -235 V 251 L 120 737 Q 130 750 139 750 Q 152 750 159 735 V -235 Q 151 -249 141 -249 H 139 Z" data-c="7C"/></g><g transform="translate(1384)" data-mml-node="mo"><path d="M 56 237 T 56 250 T 70 270 H 369 V 420 L 370 570 Q 380 583 389 583 Q 402 583 409 568 V 270 H 707 Q 722 262 722 250 T 707 230 H 409 V -68 Q 401 -82 391 -82 H 389 H 387 Q 375 -82 369 -68 V 230 H 70 Q 56 237 56 250 Z" data-c="2B"/></g><g transform="translate(2162)" data-mml-node="mo"><path d="M 139 -249 H 137 Q 125 -249 119 -235 V 251 L 120 737 Q 130 750 139 750 Q 152 750 159 735 V -235 Q 151 -249 141 -249 H 139 Z" data-c="7C"/></g><g transform="translate(2440)" data-mml-node="mi"><path d="M 66 637 Q 54 637 49 637 T 39 638 T 32 641 T 30 647 T 33 664 T 42 682 Q 44 683 56 683 Q 104 680 165 680 Q 288 680 306 683 H 316 Q 322 677 322 674 T 320 656 Q 316 643 310 637 H 298 Q 242 637 242 624 Q 242 619 292 477 T 343 333 L 346 336 Q 350 340 358 349 T 379 373 T 411 410 T 454 461 Q 546 568 561 587 T 577 618 Q 577 634 545 637 Q 528 637 528 647 Q 528 649 530 661 Q 533 676 535 679 T 549 683 Q 551 683 578 682 T 657 680 Q 684 680 713 681 T 746 682 Q 763 682 763 673 Q 763 669 760 657 T 755 643 Q 753 637 734 637 Q 662 632 617 587 Q 608 578 477 424 L 348 273 L 322 169 Q 295 62 295 57 Q 295 46 363 46 Q 379 46 384 45 T 390 35 Q 390 33 388 23 Q 384 6 382 4 T 366 1 Q 361 1 324 1 T 232 2 Q 170 2 138 2 T 102 1 Q 84 1 84 9 Q 84 14 87 24 Q 88 27 89 30 T 90 35 T 91 39 T 93 42 T 96 44 T 101 45 T 107 45 T 116 46 T 129 46 Q 168 47 180 50 T 198 63 Q 201 68 227 171 L 252 274 L 129 623 Q 128 624 127 625 T 125 627 T 122 629 T 118 631 T 113 633 T 105 634 T 96 635 T 83 636 T 66 637 Z" data-c="59"/></g><g transform="translate(3203)" data-mml-node="mo"><path d="M 139 -249 H 137 Q 125 -249 119 -235 V 251 L 120 737 Q 130 750 139 750 Q 152 750 159 735 V -235 Q 151 -249 141 -249 H 139 Z" data-c="7C"/></g></g><rect x="120" y="220" width="2896.4" height="60"/></g></g></g></svg>