<svg xmlns="http://www.w3.org/2000/svg" style="vertical-align: -0.781ex;width: 10.958ex;height: 2.895ex;" viewBox="0 -934.5 4843.4 1279.5"><g fill="currentColor" stroke="currentColor" stroke-width="0" transform="matrix(1, 0, 0, -1, 0, 0)"><g data-mml-node="math"><g data-mml-node="msub"><g data-mml-node="mi"><path d="M 580 385 Q 580 406 599 424 T 641 443 Q 659 443 674 425 T 690 368 Q 690 339 671 253 Q 656 197 644 161 T 609 80 T 554 12 T 482 -11 Q 438 -11 404 5 T 355 48 Q 354 47 352 44 Q 311 -11 252 -11 Q 226 -11 202 -5 T 155 14 T 118 53 T 104 116 Q 104 170 138 262 T 173 379 Q 173 380 173 381 Q 173 390 173 393 T 169 400 T 158 404 H 154 Q 131 404 112 385 T 82 344 T 65 302 T 57 280 Q 55 278 41 278 H 27 Q 21 284 21 287 Q 21 293 29 315 T 52 366 T 96 418 T 161 441 Q 204 441 227 416 T 250 358 Q 250 340 217 250 T 184 111 Q 184 65 205 46 T 258 26 Q 301 26 334 87 L 339 96 V 119 Q 339 122 339 128 T 340 136 T 341 143 T 342 152 T 345 165 T 348 182 T 354 206 T 362 238 T 373 281 Q 402 395 406 404 Q 419 431 449 431 Q 468 431 475 421 T 483 402 Q 483 389 454 274 T 422 142 Q 420 131 420 107 V 100 Q 420 85 423 71 T 442 42 T 487 26 Q 558 26 600 148 Q 609 171 620 213 T 632 273 Q 632 306 619 325 T 593 357 T 580 385 Z" data-c="77"/></g><g transform="translate(716 -150) scale(0.707)" data-mml-node="mi"><path d="M 34 159 Q 34 268 120 355 T 306 442 Q 362 442 394 418 T 427 355 Q 427 326 408 306 T 360 285 Q 341 285 330 295 T 319 325 T 330 359 T 352 380 T 366 386 H 367 Q 367 388 361 392 T 340 400 T 306 404 Q 276 404 249 390 Q 228 381 206 359 Q 162 315 142 235 T 121 119 Q 121 73 147 50 Q 169 26 205 26 H 209 Q 321 26 394 111 Q 403 121 406 121 Q 410 121 419 112 T 429 98 T 420 83 T 391 55 T 346 25 T 282 0 T 202 -11 Q 127 -11 81 37 T 34 159 Z" data-c="63"/></g></g><g transform="translate(1350)" data-mml-node="mo"><path d="M 56 347 Q 56 360 70 367 H 707 Q 722 359 722 347 Q 722 336 708 328 L 390 327 H 72 Q 56 332 56 347 Z M 56 153 Q 56 168 72 173 H 708 Q 722 163 722 153 Q 722 140 707 133 H 70 Q 56 140 56 153 Z" data-c="3D"/></g><g transform="translate(2405.7)" data-mml-node="mfrac"><g transform="translate(220 451.6) scale(0.707)" data-mml-node="mrow"><g data-mml-node="mi"><path d="M 234 637 Q 231 637 226 637 Q 201 637 196 638 T 191 649 Q 191 676 202 682 Q 204 683 299 683 Q 376 683 387 683 T 401 677 Q 612 181 616 168 L 670 381 Q 723 592 723 606 Q 723 633 659 637 Q 635 637 635 648 Q 635 650 637 660 Q 641 676 643 679 T 653 683 Q 656 683 684 682 T 767 680 Q 817 680 843 681 T 873 682 Q 888 682 888 672 Q 888 650 880 642 Q 878 637 858 637 Q 787 633 769 597 L 620 7 Q 618 0 599 0 Q 585 0 582 2 Q 579 5 453 305 L 326 604 L 261 344 Q 196 88 196 79 Q 201 46 268 46 H 278 Q 284 41 284 38 T 282 19 Q 278 6 272 0 H 259 Q 228 2 151 2 Q 123 2 100 2 T 63 2 T 46 1 Q 31 1 31 10 Q 31 14 34 26 T 39 40 Q 41 46 62 46 Q 130 49 150 85 Q 154 91 221 362 L 289 634 Q 287 635 234 637 Z" data-c="4E"/></g><g transform="translate(888)" data-mml-node="mo"><path d="M 84 237 T 84 250 T 98 270 H 679 Q 694 262 694 250 T 679 230 H 98 Q 84 237 84 250 Z" data-c="2212"/></g><g transform="translate(1666)" data-mml-node="msub"><g data-mml-node="mi"><path d="M 234 637 Q 231 637 226 637 Q 201 637 196 638 T 191 649 Q 191 676 202 682 Q 204 683 299 683 Q 376 683 387 683 T 401 677 Q 612 181 616 168 L 670 381 Q 723 592 723 606 Q 723 633 659 637 Q 635 637 635 648 Q 635 650 637 660 Q 641 676 643 679 T 653 683 Q 656 683 684 682 T 767 680 Q 817 680 843 681 T 873 682 Q 888 682 888 672 Q 888 650 880 642 Q 878 637 858 637 Q 787 633 769 597 L 620 7 Q 618 0 599 0 Q 585 0 582 2 Q 579 5 453 305 L 326 604 L 261 344 Q 196 88 196 79 Q 201 46 268 46 H 278 Q 284 41 284 38 T 282 19 Q 278 6 272 0 H 259 Q 228 2 151 2 Q 123 2 100 2 T 63 2 T 46 1 Q 31 1 31 10 Q 31 14 34 26 T 39 40 Q 41 46 62 46 Q 130 49 150 85 Q 154 91 221 362 L 289 634 Q 287 635 234 637 Z" data-c="4E"/></g><g transform="translate(803 -150) scale(0.707)" data-mml-node="mi"><path d="M 34 159 Q 34 268 120 355 T 306 442 Q 362 442 394 418 T 427 355 Q 427 326 408 306 T 360 285 Q 341 285 330 295 T 319 325 T 330 359 T 352 380 T 366 386 H 367 Q 367 388 361 392 T 340 400 T 306 404 Q 276 404 249 390 Q 228 381 206 359 Q 162 315 142 235 T 121 119 Q 121 73 147 50 Q 169 26 205 26 H 209 Q 321 26 394 111 Q 403 121 406 121 Q 410 121 419 112 T 429 98 T 420 83 T 391 55 T 346 25 T 282 0 T 202 -11 Q 127 -11 81 37 T 34 159 Z" data-c="63"/></g></g></g><g transform="translate(904.9 -345) scale(0.707)" data-mml-node="mi"><path d="M 234 637 Q 231 637 226 637 Q 201 637 196 638 T 191 649 Q 191 676 202 682 Q 204 683 299 683 Q 376 683 387 683 T 401 677 Q 612 181 616 168 L 670 381 Q 723 592 723 606 Q 723 633 659 637 Q 635 637 635 648 Q 635 650 637 660 Q 641 676 643 679 T 653 683 Q 656 683 684 682 T 767 680 Q 817 680 843 681 T 873 682 Q 888 682 888 672 Q 888 650 880 642 Q 878 637 858 637 Q 787 633 769 597 L 620 7 Q 618 0 599 0 Q 585 0 582 2 Q 579 5 453 305 L 326 604 L 261 344 Q 196 88 196 79 Q 201 46 268 46 H 278 Q 284 41 284 38 T 282 19 Q 278 6 272 0 H 259 Q 228 2 151 2 Q 123 2 100 2 T 63 2 T 46 1 Q 31 1 31 10 Q 31 14 34 26 T 39 40 Q 41 46 62 46 Q 130 49 150 85 Q 154 91 221 362 L 289 634 Q 287 635 234 637 Z" data-c="4E"/></g><rect x="120" y="220" width="2197.7" height="60"/></g></g></g></svg>